<mxfile host="app.diagrams.net" modified="2024-03-23T21:13:03.752Z" agent="Mozilla/5.0 (Macintosh; Intel Mac OS X 10_15_7) AppleWebKit/537.36 (KHTML, like Gecko) Chrome/123.0.0.0 Safari/537.36" version="21.7.5" etag="XZVGShWA9xBYncF0cWmO" type="github">
  <diagram name="Seite-1" id="1ahqPfS9zTfm_ZKg1fqE">
    <mxGraphModel>
      <root>
        <mxCell id="0" />
        <mxCell id="1" parent="0" />
      </root>
    </mxGraphModel>
  </diagram>
</mxfile>
